<?xml version="1.0"?>
<svg version="1.1" xmlns="http://www.w3.org/2000/svg" width="160px" height="40px" style=""><path fill="#9fc7e3" d="M14,29.464c0,3.892-3.164,5.992-6.804,5.992c-1.68,0-3.668-0.308-5.348-0.896c-0.364-0.14-0.476-0.308-0.476-0.532c0-0.112,0-0.224,0.056-0.364l0.588-1.82c0.084-0.28,0.224-0.448,0.504-0.448c0.112,0,0.252,0.028,0.42,0.084c1.316,0.476,2.772,0.84,4.172,0.84c1.512,0,3.22-0.728,3.22-2.492c0-1.288-0.952-1.988-2.044-2.52l-3.64-1.82c-1.988-0.98-3.304-2.632-3.304-4.816c0-3.416,3.36-5.292,6.468-5.292c1.848,0,3.388,0.28,5.012,0.98c0.364,0.168,0.56,0.336,0.56,0.56c0,0.112-0.028,0.224-0.084,0.364l-0.672,1.708c-0.112,0.308-0.28,0.42-0.476,0.42c-0.14,0-0.28-0.056-0.448-0.112c-1.148-0.476-2.576-0.868-3.696-0.868c-1.316,0-2.828,0.56-2.828,2.128c0,1.148,1.064,1.82,1.988,2.268l3.108,1.512c2.212,1.064,3.724,2.548,3.724,5.124z M33.922,34.42c0,0.504-0.196,0.7-0.672,0.7l-2.212,0c-0.504,0-0.728-0.196-0.728-0.7l0-7.812l-7.952,0l0,7.812c0,0.504-0.224,0.7-0.7,0.7l-2.184,0c-0.504,0-0.756-0.196-0.756-0.7l0-18.004c0-0.476,0.308-0.672,0.756-0.672l2.184,0c0.448,0,0.7,0.168,0.7,0.672l0,7.308l7.952,0l0-7.308c0-0.476,0.28-0.672,0.728-0.672l2.212,0c0.448,0,0.672,0.168,0.672,0.672l0,18.004z M60.172,34.364c0.028,0.476-0.112,0.756-0.644,0.756l-2.268,0c-0.588,0-0.7-0.28-0.728-0.924l-0.392-11.368l-0.056,0l-4.76,11.788c-0.168,0.448-0.448,0.504-0.756,0.504l-0.98,0c-0.42,0-0.672-0.084-0.868-0.532l-5.292-11.76l-0.056,0l-0.252,11.592c0,0.616-0.252,0.7-0.756,0.7l-1.904,0c-0.532,0-0.756-0.196-0.728-0.728l0.7-17.892c0.028-0.588,0.224-0.756,0.672-0.756l1.652,0c0.56,0,0.756,0.196,0.952,0.616l6.468,13.832l0.056,0l5.908-13.832c0.168-0.42,0.392-0.616,0.896-0.616l1.652,0c0.448,0,0.616,0.168,0.644,0.616z"/><path fill="#e3e8ae" d="M64.5,32.88l0-15.12l-2.38-0.56l0-1.54l5.32-0.14l3.08,0c3.948,0,6.3,1.904,6.3,5.04c0,2.716-1.232,4.564-3.64,5.46c0.448,0.392,0.952,1.12,1.68,2.52l2.212,4.452l1.988,0.448l0,1.68l-4.2,0l-2.38-5.18c-1.316-2.8-1.932-3.36-3.78-3.36l-1.26,0l0,6.3l2.38,0.56l0,1.68l-7.7,0l0-1.68z M67.44,24.48l2.1,0c2.744,0,4.34-1.288,4.34-3.5c0-1.876-1.456-3.22-3.5-3.22l-2.94,0l0,6.72z M87.8408,23.78l6.44,0l0,2.24l-6.44,0l0,6.86l6.44,0l0.56-2.8l1.82,0l0,5.04l-14.14,0l0-1.68l2.38-0.56l0-15.12l-2.38-0.56l0-1.54l5.32-0.14l8.54,0l0,4.76l-1.82,0l-0.7-2.52l-6.02,0l0,6.02z M112.3016,32.88l0.56-3.22l1.96,0l0,5.46l-13.58,0l0-1.68l2.38-0.56l0-15.12l-2.38-0.56l0-1.54l7.7-0.14l0,1.68l-2.38,0.56l0,15.12l5.74,0z M129.0624,32.88l0.56-3.22l1.96,0l0,5.46l-13.58,0l0-1.68l2.38-0.56l0-15.12l-2.38-0.56l0-1.54l7.7-0.14l0,1.68l-2.38,0.56l0,15.12l5.74,0z M144.5632,15.24c5.46,0,8.68,3.78,8.68,9.8c0,6.16-3.78,10.36-9.24,10.36s-8.54-3.5-8.54-9.94c0-6.16,3.5-10.22,9.1-10.22z M144.4232,17.62c-3.64,0-5.74,2.38-5.74,7.7c0,5.04,1.82,7.7,5.46,7.7s5.88-2.52,5.88-7.84c0-5.04-1.96-7.56-5.6-7.56z"/></svg>
