<?xml version="1.0"?>
<svg version="1.1" xmlns="http://www.w3.org/2000/svg" width="190px" height="49px" style=""><path fill="#a570cf" d="M5.248,36.756l0.48,2.688s1.28,0.672,3.136,0.672c2.048,0,3.872-0.896,3.872-2.592c0-3.744-10.816-2.08-10.816-9.984c0-4.416,3.488-6.784,8.128-6.784c3.616,0,7.04,1.28,7.04,1.28l-0.16,5.824l-2.944,0l-0.8-2.72s-1.44-0.48-2.816-0.48c-2.272,0-3.392,0.992-3.392,2.272c0,3.712,10.784,2.24,10.784,9.76c0,4.8-3.712,7.424-8.64,7.424c-3.616,0-7.136-1.216-7.136-1.216l0-6.144l3.264,0z M22.70432,43.7l0-2.72l2.4-0.96l0-15.04l-2.4-0.96l0-2.72l9.92-0.16l0,2.88l-2.56,0.96l0,5.12l8.384,0l0-5.12l-2.56-0.96l0-2.72l9.92-0.16l0,2.88l-2.4,0.96l0,15.04l2.4,0.96l0,2.72l-9.92,0l0-2.72l2.56-0.96l0-6.08l-8.384,0l0,6.08l2.56,0.96l0,2.72l-9.92,0z M50.27264,43.7l0-2.72l2.4-0.96l0-15.04l-2.4-0.96l0-2.72l8.256-0.16l4.8,10.656l5.024-10.496l7.68-0.16l0,2.88l-2.304,0.96l0,15.04l2.4,0.96l0,2.72l-9.536,0l0-2.72l2.496-0.96l0-12.032l-0.864,2.112l-3.616,7.52l-3.456,0.16l-3.68-7.584l-0.544-1.664l0,11.488l2.464,0.96l0,2.72l-9.12,0z"/><path fill="#97c6e8" d="M91.72,45.62c0,0.32-0.24,0.48-0.6,0.48l-3.64,0c-0.72,0-1.2-0.2-1.56-0.8l-5.76-9.4l-3.08,0l0,9.2c0,0.6-0.24,1-0.92,1l-3.28,0c-0.68,0-0.96-0.32-0.96-1l0-25.52c0-0.88,0.2-1.16,1.08-1.16l5.92,0c3.48,0,7.16,0.52,9.28,2.96c1.28,1.48,1.92,3.44,1.92,5.6c0,3.68-1.96,6.56-5.16,7.96l6.56,10.12c0.12,0.2,0.2,0.4,0.2,0.56z M84.88,27.06c0-3.48-2.32-4.72-5.8-4.72l-2,0l0,9.68l2.48,0c3.2,0,5.32-1.72,5.32-4.96z M114.86,45.14c0,0.64-0.28,0.96-0.96,0.96l-14.84,0c-0.8,0-1.08-0.2-1.08-1.08l0-25.6c0-0.64,0.28-1,0.92-1l15.08,0c0.64,0,0.84,0.24,0.84,0.68l0,0.24l-0.28,2.4c-0.08,0.72-0.52,0.84-1.36,0.84l-10.04,0l0,7.24l9.24,0c0.76,0,1,0.32,1,0.88l0,2.28c0,0.68-0.28,0.96-0.96,0.96l-9.28,0l0,8l10.72,0c0.68,0,1,0.28,1,0.92l0,2.28z M138.12,45.14c0,0.72-0.36,0.96-0.96,0.96l-14.24,0c-0.72,0-1.04-0.24-1.04-1.12l0-25.56c0-0.64,0.32-1,0.96-1l3.2,0c0.72,0,1,0.28,1,1.04l0,22.36l10.12,0c0.68,0,0.96,0.32,0.96,0.92l0,2.4z M160.22,45.14c0,0.72-0.36,0.96-0.96,0.96l-14.24,0c-0.72,0-1.04-0.24-1.04-1.12l0-25.56c0-0.64,0.32-1,0.96-1l3.2,0c0.72,0,1,0.28,1,1.04l0,22.36l10.12,0c0.68,0,0.96,0.32,0.96,0.92l0,2.4z M189.32,32.1c0,9.04-5.16,14.48-12.32,14.48c-7.64,0-12.04-5.56-12.04-14.24c0-8.6,4.8-14.44,12.32-14.44c7.92,0,12.04,6,12.04,14.2z M183.8,32.22c0-6.72-2.36-9.96-6.64-9.96c-4,0-6.68,3.72-6.68,9.96c0,6.64,2.44,10,6.68,10c3.96,0,6.64-3.48,6.64-10z"/></svg>
